<?xml version="1.0" standalone="no"?>
<!DOCTYPE svg PUBLIC "-//W3C//DTD SVG 20010904//EN"
 "http://www.w3.org/TR/2001/REC-SVG-20010904/DTD/svg10.dtd">
<svg version="1.0" xmlns="http://www.w3.org/2000/svg"
 width="188.000000pt" height="188.000000pt" viewBox="0 0 188.000000 188.000000"
 preserveAspectRatio="xMidYMid meet">
<metadata>
Created by potrace 1.11, written by Peter Selinger 2001-2013
</metadata>
<g transform="translate(0.000000,188.000000) scale(0.100000,-0.100000)"
fill="#000000" stroke="none">
<path d="M0 940 l0 -940 940 0 940 0 0 940 0 940 -940 0 -940 0 0 -940z m591
468 l72 -143 71 143 71 143 40 -3 40 -3 3 -212 2 -213 -35 0 -35 0 -1 163 0
162 -70 -137 c-49 -99 -74 -138 -87 -138 -12 0 -38 40 -89 143 l-72 142 0
-167 -1 -168 -30 0 -30 0 0 215 0 215 40 0 40 0 71 -142z m844 -65 c39 -114
72 -211 74 -216 2 -4 -12 -7 -30 -5 -29 3 -34 8 -49 53 l-17 50 -83 0 -83 0
-17 -50 c-15 -45 -20 -50 -50 -53 -24 -3 -31 0 -28 10 3 7 36 104 74 215 l69
203 35 0 35 0 70 -207z m-680 -617 c96 -40 99 -183 5 -225 l-38 -17 59 -87 60
-87 -39 0 c-38 0 -40 2 -92 85 -49 79 -55 85 -86 85 l-34 0 0 -85 0 -85 -35 0
-35 0 0 208 c0 115 3 212 7 215 13 13 193 7 228 -7z m438 -82 l55 -97 24 39
c14 22 40 65 59 97 30 51 37 57 66 57 18 0 33 -2 33 -4 0 -3 -34 -60 -75 -127
l-75 -123 0 -88 0 -88 -30 0 -30 0 0 86 0 86 -75 125 c-41 68 -75 126 -75 129
0 2 15 4 34 4 32 0 36 -4 89 -96z"/>
<path d="M1293 1365 l-31 -95 68 0 68 0 -31 95 c-17 52 -34 95 -37 95 -3 0
-20 -43 -37 -95z"/>
<path d="M590 604 l0 -87 67 6 c57 4 71 9 90 32 27 30 29 55 8 94 -16 33 -39
41 -112 41 l-53 0 0 -86z"/>
</g>
</svg>
